<?xml version="1.0" standalone="no"?><!DOCTYPE svg PUBLIC "-//W3C//DTD SVG 1.1//EN" "http://www.w3.org/Graphics/SVG/1.1/DTD/svg11.dtd"><svg t="1602688124145" class="icon" viewBox="0 0 1024 1024" version="1.1" xmlns="http://www.w3.org/2000/svg" p-id="6434" xmlns:xlink="http://www.w3.org/1999/xlink" width="200" height="200"><defs><style type="text/css">@font-face { font-family: iconfont; src: url("https://at.alicdn.com/t/font_1020024_ucarfqfwsz.eot?#iefix") format("embedded-opentype"), url("https://at.alicdn.com/t/font_1020024_ucarfqfwsz.woff2") format("woff2"), url("https://at.alicdn.com/t/font_1020024_ucarfqfwsz.woff") format("woff"), url("https://at.alicdn.com/t/font_1020024_ucarfqfwsz.ttf") format("truetype"), url("https://at.alicdn.com/t/font_1020024_ucarfqfwsz.svg#iconfont") format("svg"); }
</style></defs><path d="M227.264 149.333333c2.261333 0.042667 4.181333 0.213333 6.101333 0.597334l2.986667 0.725333 3.968 0.938667c23.893333 6.186667 70.186667 26.645333 97.792 45.653333a363.754667 363.754667 0 0 1 173.653333-44.458667c200.106667 0 362.901333 161.92 362.901334 360.96C874.666667 712.746667 711.872 874.666667 511.786667 874.666667c-37.994667 0-74.453333-5.674667-108.586667-16.256a213.802667 213.802667 0 0 0 41.770667-55.296c21.546667 4.949333 43.968 7.552 67.029333 7.552 164.949333 0 298.666667-133.717333 298.666667-298.666667s-133.717333-298.666667-298.666667-298.666667c-66.410667 0-127.786667 21.674667-177.344 58.304-9.344-6.677333-18.773333-13.098667-28.266667-19.285333-11.84-7.68-20.906667-13.077333-27.2-16.192 2.197333 12.714667 3.285333 23.189333 3.285334 31.445333 0 7.701333-0.96 25.301333-2.858667 52.757334l-0.298667 4.373333a297.28 297.28 0 0 0-65.493333 170.133333 211.2 211.2 0 0 0-64.256 24.213334c-0.149333-4.693333-0.234667-9.386667-0.234667-14.144 0-15.146667 7.530667-82.026667 14.186667-100.778667 1.813333-8.661333 12.565333-51.413333 53.717333-103.509333 1.493333-20.202667 3.626667-71.786667-14.208-108.672a33.984 33.984 0 0 1-2.453333-9.813334l-0.256-3.072-0.298667-2.666666a25.344 25.344 0 0 1 4.821334-15.744 27.306667 27.306667 0 0 1 19.370666-11.264l0.96-0.021334 2.090667-0.064zM256 533.333333a170.666667 170.666667 0 1 1 0 341.333334 170.666667 170.666667 0 0 1 0-341.333334z m0 64a106.666667 106.666667 0 1 0 0 213.333334 106.666667 106.666667 0 0 0 0-213.333334z m32 24.384v56.384h49.28v64H256a32 32 0 0 1-32-32v-88.384h64zM501.333333 384a32 32 0 0 1 32 32v64a32 32 0 0 1-64 0v-64a32 32 0 0 1 32-32z m170.666667 0a32 32 0 0 1 32 32v64a32 32 0 0 1-64 0v-64a32 32 0 0 1 32-32zM263.765333 170.88c0.085333 0.789333 0.149333 1.557333 0.192 2.346667l0.192 1.429333-0.213333-3.413333-0.170667-0.362667z" p-id="6435"></path></svg>